# xmcd
#
# Track frame offsets:
#  150
#  12381
#  25062
#  36018
#  46674
#  59880
#  76684
#  89590
#  111196
#  127477
#  142033
#  156889
#  171520
#  184051
#
# Disc length: 2652 seconds
#
# Revision: 0
# Processed by: cddbd v1.5PL3 Copyright (c) Steve Scherf et al.
# Submitted via: AltoMP3_Maker 3.0
#
DISCID=c40a5a0e
DTITLE=Aretha Franklin - The Queen Of Soul
DYEAR=1900
DGENRE=
TTITLE0=Baby, I Love You
TTITLE1=Chain Of Fools
TTITLE2=Respect
TTITLE3=The House That Jack Built
TTITLE4=Tracks Of My Tears
TTITLE5=People Get Ready
TTITLE6=I Never Loved A Man (The Way I Love You)
TTITLE7=Night Time Is The Right Time
TTITLE8=You're All I Need To Get By
TTITLE9=Rock Steady
TTITLE10=Son Of A Preacher Man
TTITLE11=Do Right Woman, Do Right Man
TTITLE12=(You Make Me Feel Like) A Natural Woman
TTITLE13=Bridge Over Troubled Water
EXTD=
EXTT0=
EXTT1=
EXTT2=
EXTT3=
EXTT4=
EXTT5=
EXTT6=
EXTT7=
EXTT8=
EXTT9=
EXTT10=
EXTT11=
EXTT12=
EXTT13=
PLAYORDER=
